<?xml version="1.0" standalone="no"?>
<!DOCTYPE svg PUBLIC "-//W3C//DTD SVG 20010904//EN"
 "http://www.w3.org/TR/2001/REC-SVG-20010904/DTD/svg10.dtd">
<svg version="1.0" xmlns="http://www.w3.org/2000/svg"
 width="742.000000pt" height="107.000000pt" viewBox="0 0 742.000000 107.000000"
 preserveAspectRatio="xMidYMid meet">

<g transform="translate(0.000000,107.000000) scale(0.100000,-0.100000)"
fill="#ffffff" stroke="none">
<path d="M78 1063 c-11 -3 -19 -19 -23 -46 -3 -23 -5 -254 -3 -514 2 -260 0
-469 -4 -465 -4 4 -9 228 -11 497 l-2 490 -3 -492 -2 -492 26 -20 c21 -17 41
-21 98 -21 66 0 75 2 99 28 l26 27 1 193 c1 107 -1 196 -4 200 -3 3 -6 -85 -6
-195 0 -195 -1 -200 -22 -219 -23 -19 -23 -19 -6 2 15 17 18 48 20 230 l3 210
178 -219 c98 -120 177 -220 175 -222 -2 -1 -75 86 -163 195 -88 109 -162 196
-164 195 -4 -5 304 -384 331 -408 16 -13 39 -17 107 -17 47 0 91 4 97 8 6 4
14 20 18 35 6 26 -9 47 -164 233 -94 112 -168 204 -165 204 2 0 82 -92 176
-205 139 -167 169 -209 165 -227 l-6 -23 11 22 c11 20 -6 44 -191 265 -111
134 -206 243 -211 243 -5 0 -9 5 -8 10 1 11 197 235 206 235 5 0 -71 -87 -176
-202 -14 -16 -22 -28 -19 -28 12 0 363 402 373 427 8 21 6 29 -18 49 -24 21
-39 24 -101 24 -90 0 -87 3 -248 -178 -67 -75 -133 -149 -147 -164 -13 -16
-22 -28 -19 -28 4 0 75 77 158 170 84 94 160 175 170 180 10 6 50 10 88 10 53
0 75 -4 92 -18 34 -28 21 -55 -71 -152 l-81 -85 81 93 c58 66 81 100 79 115
-3 21 -9 22 -99 25 l-97 3 -155 -174 c-85 -96 -162 -174 -171 -174 -14 0 -16
20 -16 163 l0 162 -31 26 c-26 22 -39 26 -92 25 -34 -1 -70 -3 -79 -6z"/>
<path d="M1232 1046 c-59 -22 -142 -70 -142 -82 0 -3 6 -2 13 2 6 4 3 -2 -7
-14 -21 -25 -36 -31 -16 -7 8 9 8 15 2 15 -26 0 -172 -193 -172 -226 0 -5 16
18 35 51 19 33 53 80 75 105 41 45 41 45 -4 -13 -138 -176 -165 -392 -71 -578
14 -27 23 -54 20 -59 -6 -10 112 -140 127 -140 5 0 6 6 2 13 -5 8 -2 8 9 -2
20 -16 23 -26 5 -15 -10 6 -10 5 -1 -8 7 -8 46 -30 85 -49 71 -33 76 -34 179
-31 59 2 133 9 165 17 68 16 87 12 23 -5 -62 -16 -71 -21 -24 -14 51 7 168 61
161 73 -4 5 -1 13 5 17 8 4 9 3 5 -4 -11 -18 10 -14 25 5 12 15 12 16 -1 8 -9
-5 -8 0 4 13 21 25 36 31 16 7 -26 -31 8 -13 42 23 41 42 118 150 118 165 0 6
-18 -16 -39 -49 -22 -32 -51 -72 -66 -89 l-27 -30 24 33 c13 19 38 55 56 80
38 55 69 147 78 235 13 135 -41 287 -142 396 -32 36 -52 61 -44 56 9 -5 8 0
-4 13 -23 26 -45 30 -25 5 13 -16 12 -17 -3 -4 -10 7 -15 17 -12 22 3 5 -30
26 -73 47 -75 35 -82 37 -170 34 -50 -1 -115 -7 -144 -12 -64 -12 -78 -5 -17
8 26 6 33 10 18 10 -14 1 -53 -10 -88 -22z m290 -211 c25 -11 27 -14 8 -10
-20 5 -18 2 10 -14 41 -23 54 -26 44 -8 -4 7 -3 9 2 4 5 -5 9 -14 9 -19 0 -6
6 -13 14 -16 9 -3 11 0 6 9 -5 8 6 1 24 -16 18 -16 46 -59 64 -94 59 -120 38
-257 -55 -354 -27 -28 -46 -46 -42 -38 4 9 2 12 -7 9 -8 -3 -14 -10 -14 -16 0
-5 -4 -14 -9 -19 -5 -5 -6 -2 -1 6 5 9 4 12 -6 8 -105 -43 -212 -46 -288 -7
-47 23 -55 25 -45 8 4 -8 3 -10 -2 -5 -5 5 -9 12 -9 16 0 4 -20 29 -44 57 -44
48 -33 18 13 -36 l21 -25 -28 25 c-15 13 -42 54 -60 89 -28 58 -32 75 -32 146
1 99 26 163 92 226 25 24 42 38 38 30 -5 -9 -3 -12 6 -9 8 3 14 10 14 16 0 5
4 14 9 19 6 5 6 2 1 -6 -6 -11 -4 -13 11 -6 57 24 124 36 179 31 55 -4 57 -4
20 5 -22 6 -60 8 -85 5 -32 -3 -39 -2 -25 5 27 12 126 3 167 -16z"/>
<path d="M2104 1049 c-12 -13 -14 -92 -12 -515 2 -391 6 -499 16 -499 6 0 12
-4 11 -9 -2 -18 28 -26 97 -26 61 0 74 3 92 23 21 22 21 30 22 316 l1 294 50
-49 c62 -61 64 -73 2 -14 l-47 45 34 -40 c19 -22 142 -159 275 -305 l242 -265
43 1 c29 1 48 7 57 20 10 14 13 111 11 503 l-3 486 -5 -492 c-4 -399 -8 -494
-19 -505 -11 -11 -12 -9 -2 9 8 17 11 158 9 512 -2 324 0 487 7 484 6 -2 -3 7
-18 21 -24 22 -37 26 -92 26 -57 0 -68 -3 -95 -27 l-30 -28 -1 -274 c0 -150 2
-276 5 -279 3 -3 6 121 6 276 l0 281 26 20 c21 16 41 21 88 21 34 0 70 -6 79
-12 14 -11 2 -12 -72 -10 -80 3 -91 1 -100 -16 -6 -12 -11 -127 -11 -302 l-1
-283 -40 39 c-42 41 -55 62 -14 24 14 -13 25 -20 25 -16 0 4 -122 136 -270
294 -267 284 -270 286 -311 287 -24 0 -46 -6 -55 -16z"/>
<path d="M4181 1044 l-31 -26 0 -481 c0 -265 4 -487 8 -494 4 -6 6 211 4 482
l-3 493 27 21 c26 20 37 21 320 21 184 0 295 -4 299 -10 4 -7 -100 -10 -304
-10 -300 0 -311 -1 -321 -20 -7 -14 -10 -176 -8 -510 3 -423 5 -492 18 -500
19 -12 600 -13 618 -1 8 4 13 12 13 17 -1 5 5 9 12 9 8 0 13 23 15 74 3 65 0
77 -19 97 -22 24 -25 24 -226 24 l-203 0 0 100 0 100 168 0 c164 0 169 1 191
24 19 20 22 32 18 92 l-3 69 -2 -71 c-3 -106 -2 -105 -208 -101 l-169 3 171 2
c139 2 174 5 184 17 18 21 9 173 -11 186 -8 5 -87 9 -176 9 l-163 0 0 90 0 90
208 2 c176 3 207 5 207 18 0 8 7 15 15 15 12 0 15 15 16 75 l1 75 -6 -75 -6
-75 -6 88 c-4 61 -10 91 -20 98 -8 5 -145 9 -306 9 l-291 0 -31 -26z"/>
<path d="M5026 1049 l-26 -20 0 -493 0 -493 23 -21 c20 -19 35 -22 98 -22 66
0 78 3 97 23 21 22 22 32 22 200 l0 177 60 0 60 0 94 -187 c52 -104 95 -185
95 -180 1 4 -42 93 -94 197 -52 105 -93 190 -90 190 8 0 195 -378 195 -394 0
-8 7 -17 16 -20 22 -8 167 -7 181 2 6 4 -29 5 -79 3 -49 -1 -94 1 -99 5 -4 5
28 8 72 6 44 -2 88 0 97 4 9 4 21 8 27 8 24 2 12 44 -45 151 -34 63 -64 115
-66 115 -3 0 22 -52 56 -115 34 -63 59 -123 57 -133 -4 -15 -5 -15 -6 1 0 10
-44 100 -97 198 -53 99 -94 183 -90 186 3 4 6 1 6 -6 0 -9 5 -9 20 -1 11 6 18
15 15 20 -3 5 0 12 6 16 8 4 9 3 5 -4 -11 -18 10 -14 25 5 12 15 12 16 -1 8
-9 -5 -8 0 4 13 21 25 36 31 16 7 -8 -9 -8 -15 -2 -15 28 0 122 151 122 194
-1 12 -9 -3 -19 -32 -10 -29 -24 -59 -30 -65 -7 -7 -2 11 10 38 44 98 25 215
-52 318 l-31 42 32 -35 c44 -49 69 -102 86 -179 l14 -66 -6 55 c-7 72 -42 147
-94 204 -40 44 -78 66 -49 29 13 -16 12 -17 -3 -4 -10 7 -15 17 -13 22 9 14
-71 49 -122 54 -47 5 -47 5 10 -8 31 -8 62 -18 69 -25 6 -6 -7 -4 -31 4 -33
11 -95 14 -294 12 l-252 -3 -3 -494 c-2 -385 1 -497 10 -510 12 -14 11 -14 -4
-2 -17 12 -18 49 -18 506 0 446 2 494 17 506 12 11 70 15 232 19 l216 6 -211
2 c-200 2 -213 1 -238 -19z m486 -226 c18 -19 32 -16 18 5 -7 9 1 2 19 -16 27
-28 31 -39 31 -87 0 -50 -4 -59 -36 -93 -20 -20 -34 -32 -31 -27 3 7 -44 9
-134 7 l-139 -4 0 117 0 117 130 -3 c86 -3 133 -8 142 -16z"/>
<path d="M6070 1039 c-56 -26 -117 -84 -144 -138 -27 -51 -17 -49 13 4 16 28
39 59 51 70 13 11 7 -1 -13 -28 -69 -91 -82 -199 -36 -289 11 -21 17 -38 14
-38 -2 0 -15 19 -27 43 -16 32 -22 60 -22 115 0 55 -3 67 -9 45 -11 -39 0
-119 24 -166 22 -42 105 -137 121 -137 5 0 6 6 2 13 -4 7 -3 9 2 4 5 -5 9 -14
9 -19 0 -6 6 -13 14 -16 9 -3 11 0 6 8 -5 9 -4 11 4 6 6 -4 9 -11 6 -16 -3 -5
46 -34 109 -64 68 -33 122 -66 131 -80 18 -26 22 -69 12 -106 -5 -17 -2 -15 8
6 20 45 4 95 -43 135 -20 17 -28 27 -17 21 29 -15 62 -53 75 -86 12 -34 -1
-86 -27 -108 -14 -11 -16 -11 -8 1 7 11 4 13 -11 5 -33 -15 -197 -7 -186 10 3
5 -2 6 -12 3 -9 -4 -15 -3 -11 2 6 11 -80 61 -106 61 -19 0 -52 -39 -89 -106
-21 -40 -22 -42 -5 -68 10 -14 22 -26 28 -26 6 0 0 11 -13 25 l-24 25 24 43
c42 75 60 97 84 97 13 0 30 -8 37 -18 11 -14 11 -15 -1 -4 -31 28 -58 14 -95
-49 -19 -33 -35 -63 -35 -66 0 -4 12 -20 28 -36 15 -17 20 -26 12 -22 -13 8
-13 7 -1 -8 15 -19 36 -23 25 -5 -4 7 -3 8 5 4 6 -4 9 -12 5 -17 -3 -5 21 -21
53 -36 54 -24 69 -26 199 -26 128 0 145 2 188 23 55 28 125 99 157 161 30 59
32 156 3 219 -23 48 -99 140 -116 140 -6 0 -5 -8 3 -17 13 -16 12 -17 -3 -5
-10 8 -16 19 -15 24 1 6 -4 13 -12 16 -9 3 -11 0 -6 -8 5 -9 4 -11 -4 -6 -6 4
-9 12 -5 17 3 5 -47 34 -110 64 -122 58 -142 65 -110 39 18 -14 18 -15 -4 -4
-12 6 -20 15 -18 19 6 9 -42 57 -52 53 -4 -1 -8 15 -10 36 -2 28 3 45 18 63
12 13 18 18 14 10 -6 -11 -3 -12 12 -5 10 5 44 9 75 9 45 0 70 -7 132 -38 46
-24 83 -37 94 -33 24 8 103 116 103 142 0 30 -45 68 -124 105 -65 30 -75 32
-195 33 -116 1 -130 -1 -181 -25z"/>
<path d="M6759 1041 l-29 -29 0 -481 c0 -264 3 -482 8 -484 4 -3 6 213 4 479
l-2 485 24 24 25 25 295 0 c186 0 297 -4 301 -10 4 -7 -100 -10 -304 -10 -182
0 -312 -4 -316 -9 -3 -6 -5 -229 -5 -497 0 -350 3 -490 11 -500 9 -11 71 -14
313 -16 l301 -3 -299 -2 c-212 -2 -303 0 -312 8 -9 7 -14 8 -14 1 0 -5 7 -13
16 -16 9 -3 150 -6 314 -6 249 0 300 2 310 15 16 19 16 181 0 200 -10 12 -50
15 -216 15 l-204 0 0 100 0 100 170 0 170 0 11 28 c16 40 8 180 -11 192 -8 5
-88 10 -177 10 l-163 0 0 90 0 90 206 0 c197 0 206 1 211 20 3 11 8 18 12 16
3 -2 5 35 4 82 -1 70 -5 89 -19 99 -14 10 -87 13 -312 13 l-294 0 -29 -29z"/>
<path d="M3097 1034 c-4 -4 -7 -13 -7 -20 0 -15 437 -972 454 -993 8 -12 8
-13 -2 -7 -7 4 -32 48 -54 97 -23 49 -43 88 -45 86 -6 -6 75 -175 88 -183 7
-4 29 -7 48 -8 34 0 38 4 68 60 18 32 32 64 32 69 0 6 -16 -20 -35 -57 -19
-38 -36 -68 -38 -68 -2 0 99 224 225 497 127 274 228 504 227 513 -3 12 -21
15 -103 15 l-100 0 -137 -305 c-75 -168 -139 -309 -140 -313 -2 -5 -67 132
-144 305 l-140 313 -95 3 c-52 1 -98 0 -102 -4z"/>
</g>
</svg>

